<svg xmlns="http://www.w3.org/2000/svg" width="18" height="13" viewBox="0 0 18 13">
  <defs>
    <style>
      .cls-1 {
        fill: #fff;
        stroke: #fff;
        stroke-linejoin: round;
        stroke-width: 1px;
        fill-rule: evenodd;
      }
    </style>
  </defs>
  <path id="select.svg" class="cls-1" d="M1056.41,635.979l0.09,0.02a0.479,0.479,0,0,0,.1-0.02h0.13l0.22-.078c0.02,0,.02,0,0.02-0.01a0.037,0.037,0,0,1,.03-0.019c0.02-.007.04-0.02,0.08-0.039a1.324,1.324,0,0,1,.12-0.069l5.47-5.627a1.3,1.3,0,0,0,.34-0.89,1.231,1.231,0,0,0-.35-0.879,1.111,1.111,0,0,0-.83-0.361,1.138,1.138,0,0,0-.85.371l-4.48,4.631-4.47-4.631a1.192,1.192,0,0,0-.86-0.371,1.112,1.112,0,0,0-.83.371,1.312,1.312,0,0,0-.34.9,1.179,1.179,0,0,0,.34.86l5.47,5.627a0.019,0.019,0,0,0,.02.02l0.17,0.1a0.672,0.672,0,0,1,.26.1h0.15Z" transform="translate(-1047.5 -625.5)"/>
</svg>
